%TF.GenerationSoftware,Altium Limited,Altium Designer,18.1.6 (161)*%
G04 Layer_Color=65535*
%FSLAX26Y26*%
%MOIN*%
%TF.FileFunction,Legend,Top*%
%TF.Part,Single*%
G01*
G75*
%TA.AperFunction,NonConductor*%
%ADD11C,0.007874*%
%ADD19C,0.008000*%
%ADD20C,0.015748*%
%ADD21C,0.010000*%
G36*
X732605Y1131580D02*
X671597D01*
X671105Y1131482D01*
X670514Y1131383D01*
X669727Y1131088D01*
X668940Y1130793D01*
X668054Y1130301D01*
X667169Y1129612D01*
X667070Y1129514D01*
X666874Y1129317D01*
X666480Y1128923D01*
X666086Y1128333D01*
X665693Y1127742D01*
X665299Y1126955D01*
X665102Y1126168D01*
X665004Y1125282D01*
Y1115836D01*
X732605D01*
Y1103142D01*
X665004D01*
Y1093598D01*
Y1093499D01*
Y1093302D01*
X665102Y1093007D01*
Y1092614D01*
X665398Y1091630D01*
X665890Y1090547D01*
X666283Y1089957D01*
X666775Y1089465D01*
X667267Y1088874D01*
X667956Y1088481D01*
X668842Y1088087D01*
X669727Y1087792D01*
X670810Y1087595D01*
X672089Y1087497D01*
X732605D01*
Y1075098D01*
X671302D01*
X670711Y1075197D01*
X670022Y1075295D01*
X669137Y1075394D01*
X668251Y1075492D01*
X667267Y1075787D01*
X665004Y1076378D01*
X662642Y1077263D01*
X661462Y1077854D01*
X660182Y1078542D01*
X659100Y1079330D01*
X657919Y1080215D01*
X657821Y1080314D01*
X657624Y1080412D01*
X657329Y1080707D01*
X657034Y1081199D01*
X656542Y1081691D01*
X656050Y1082282D01*
X655558Y1083069D01*
X654967Y1083856D01*
X653885Y1085824D01*
X652901Y1088087D01*
X652606Y1089366D01*
X652310Y1090646D01*
X652114Y1092122D01*
X652015Y1093598D01*
Y1125282D01*
Y1125381D01*
Y1125578D01*
Y1126070D01*
X652114Y1126562D01*
X652212Y1127250D01*
X652310Y1128038D01*
X652802Y1129809D01*
X653491Y1131875D01*
X653983Y1132958D01*
X654574Y1134040D01*
X655262Y1135122D01*
X656148Y1136303D01*
X657034Y1137287D01*
X658116Y1138370D01*
X658214Y1138468D01*
X658411Y1138566D01*
X658706Y1138862D01*
X659198Y1139255D01*
X659789Y1139649D01*
X660478Y1140141D01*
X661265Y1140633D01*
X662150Y1141125D01*
X664217Y1142109D01*
X666578Y1142994D01*
X669235Y1143683D01*
X670613Y1143782D01*
X672089Y1143880D01*
X732605D01*
Y1131580D01*
D02*
G37*
G36*
X645127D02*
X584119D01*
X583627Y1131482D01*
X583037Y1131383D01*
X582250Y1131088D01*
X581462Y1130793D01*
X580577Y1130301D01*
X579691Y1129612D01*
X579593Y1129514D01*
X579396Y1129317D01*
X579002Y1128923D01*
X578609Y1128333D01*
X578215Y1127742D01*
X577822Y1126955D01*
X577625Y1126168D01*
X577526Y1125282D01*
Y1093598D01*
Y1093499D01*
Y1093302D01*
X577625Y1093007D01*
Y1092614D01*
X577920Y1091630D01*
X578412Y1090547D01*
X578806Y1089957D01*
X579298Y1089465D01*
X579790Y1088874D01*
X580478Y1088481D01*
X581364Y1088087D01*
X582250Y1087792D01*
X583332Y1087595D01*
X584611Y1087497D01*
X645127D01*
Y1075098D01*
X583824D01*
X583234Y1075197D01*
X582545Y1075295D01*
X581659Y1075394D01*
X580774Y1075492D01*
X579790Y1075787D01*
X577526Y1076378D01*
X575165Y1077263D01*
X573984Y1077854D01*
X572705Y1078542D01*
X571622Y1079330D01*
X570442Y1080215D01*
X570343Y1080314D01*
X570146Y1080412D01*
X569851Y1080707D01*
X569556Y1081199D01*
X569064Y1081691D01*
X568572Y1082282D01*
X568080Y1083069D01*
X567490Y1083856D01*
X566407Y1085824D01*
X565423Y1088087D01*
X565128Y1089366D01*
X564833Y1090646D01*
X564636Y1092122D01*
X564538Y1093598D01*
Y1125282D01*
Y1125381D01*
Y1125578D01*
Y1126070D01*
X564636Y1126562D01*
X564734Y1127250D01*
X564833Y1128038D01*
X565325Y1129809D01*
X566014Y1131875D01*
X566506Y1132958D01*
X567096Y1134040D01*
X567785Y1135122D01*
X568670Y1136303D01*
X569556Y1137287D01*
X570638Y1138370D01*
X570737Y1138468D01*
X570934Y1138566D01*
X571229Y1138862D01*
X571721Y1139255D01*
X572311Y1139649D01*
X573000Y1140141D01*
X573787Y1140633D01*
X574673Y1141125D01*
X576739Y1142109D01*
X579101Y1142994D01*
X581758Y1143683D01*
X583135Y1143782D01*
X584611Y1143880D01*
X645127D01*
Y1131580D01*
D02*
G37*
G36*
X556370Y1075098D02*
X543382D01*
Y1143880D01*
X556370D01*
Y1075098D01*
D02*
G37*
G36*
X515239Y1143683D02*
X516026Y1143585D01*
X516814Y1143486D01*
X517798Y1143388D01*
X518782Y1143093D01*
X521045Y1142502D01*
X523406Y1141617D01*
X524686Y1141026D01*
X525866Y1140338D01*
X527047Y1139452D01*
X528130Y1138566D01*
X528228Y1138468D01*
X528425Y1138370D01*
X528720Y1138074D01*
X529015Y1137582D01*
X529507Y1137090D01*
X529999Y1136500D01*
X530491Y1135811D01*
X531082Y1134926D01*
X532164Y1133056D01*
X533148Y1130694D01*
X533443Y1129415D01*
X533738Y1128136D01*
X533935Y1126660D01*
X534034Y1125184D01*
Y1121543D01*
Y1121445D01*
Y1121248D01*
Y1120854D01*
X533935Y1120362D01*
X533837Y1119772D01*
X533738Y1119083D01*
X533443Y1117509D01*
X532754Y1115639D01*
X531869Y1113573D01*
X531278Y1112490D01*
X530590Y1111506D01*
X529802Y1110424D01*
X528917Y1109440D01*
X529015Y1109342D01*
X529114Y1109243D01*
X529409Y1108948D01*
X529704Y1108456D01*
X530098Y1107964D01*
X530491Y1107374D01*
X531475Y1105898D01*
X532459Y1104126D01*
X533246Y1102060D01*
X533837Y1099895D01*
X533935Y1098616D01*
X534034Y1097435D01*
Y1075098D01*
X521045D01*
Y1097337D01*
Y1097435D01*
Y1097829D01*
X520946Y1098321D01*
X520750Y1098911D01*
X520553Y1099600D01*
X520159Y1100289D01*
X519569Y1100978D01*
X518880Y1101568D01*
X518782Y1101666D01*
X518486Y1101765D01*
X518093Y1102060D01*
X517404Y1102355D01*
X516715Y1102552D01*
X515830Y1102847D01*
X514944Y1102946D01*
X513862Y1103044D01*
X466826D01*
Y1115738D01*
X514550D01*
X514944Y1115836D01*
X516125Y1116033D01*
X517502Y1116426D01*
X518782Y1117115D01*
X519372Y1117607D01*
X519962Y1118198D01*
X520356Y1118788D01*
X520750Y1119575D01*
X520946Y1120461D01*
X521045Y1121445D01*
Y1125184D01*
Y1125282D01*
Y1125479D01*
Y1125774D01*
X520946Y1126168D01*
X520651Y1127152D01*
X520159Y1128333D01*
X519766Y1128923D01*
X519274Y1129514D01*
X518683Y1130006D01*
X517994Y1130498D01*
X517207Y1130891D01*
X516223Y1131186D01*
X515141Y1131383D01*
X513862Y1131482D01*
X462890D01*
Y1075098D01*
X450000D01*
Y1143782D01*
X514649D01*
X515239Y1143683D01*
D02*
G37*
D11*
X1125000Y600000D02*
Y700000D01*
X825000Y1000000D02*
X1125000Y700000D01*
X425000Y1000000D02*
X825000D01*
X125000Y700000D02*
X425000Y1000000D01*
X125000Y600000D02*
Y700000D01*
Y100000D02*
Y400000D01*
Y100000D02*
X1125000D01*
Y400000D01*
X366142Y1236210D02*
Y1204724D01*
Y1215220D01*
X387132Y1236210D01*
X371389Y1220467D01*
X387132Y1204724D01*
X418618Y1236210D02*
X397628D01*
Y1204724D01*
X418618D01*
X397628Y1220467D02*
X408123D01*
X429113Y1236210D02*
X450104D01*
X439609D01*
Y1204724D01*
X481590Y1230963D02*
X476342Y1236210D01*
X465847D01*
X460599Y1230963D01*
Y1209972D01*
X465847Y1204724D01*
X476342D01*
X481590Y1209972D01*
X492085Y1225715D02*
Y1209972D01*
X497333Y1204724D01*
X513076D01*
Y1225715D01*
X523571Y1236210D02*
Y1204724D01*
X539314D01*
X544562Y1209972D01*
Y1215220D01*
Y1220467D01*
X539314Y1225715D01*
X523571D01*
X570800Y1204724D02*
X560305D01*
X555057Y1209972D01*
Y1220467D01*
X560305Y1225715D01*
X570800D01*
X576048Y1220467D01*
Y1215220D01*
X555057D01*
X586543Y1199477D02*
X607534D01*
X618029Y1236210D02*
Y1204724D01*
X633772D01*
X639019Y1209972D01*
Y1215220D01*
X633772Y1220467D01*
X618029D01*
X633772D01*
X639019Y1225715D01*
Y1230963D01*
X633772Y1236210D01*
X618029D01*
X649515Y1199477D02*
X670505D01*
X681001Y1204724D02*
X691496D01*
X686248D01*
Y1236210D01*
X681001Y1230963D01*
X707239D02*
X712487Y1236210D01*
X722982D01*
X728230Y1230963D01*
Y1225715D01*
X722982Y1220467D01*
X728230Y1215220D01*
Y1209972D01*
X722982Y1204724D01*
X712487D01*
X707239Y1209972D01*
Y1215220D01*
X712487Y1220467D01*
X707239Y1225715D01*
Y1230963D01*
X712487Y1220467D02*
X722982D01*
X738725Y1230963D02*
X743973Y1236210D01*
X754468D01*
X759716Y1230963D01*
Y1209972D01*
X754468Y1204724D01*
X743973D01*
X738725Y1209972D01*
Y1230963D01*
X791201Y1236210D02*
X770211D01*
Y1220467D01*
X780706Y1225715D01*
X785954D01*
X791201Y1220467D01*
Y1209972D01*
X785954Y1204724D01*
X775458D01*
X770211Y1209972D01*
X833183Y1236210D02*
Y1204724D01*
X848926D01*
X854173Y1209972D01*
Y1215220D01*
X848926Y1220467D01*
X833183D01*
X848926D01*
X854173Y1225715D01*
Y1230963D01*
X848926Y1236210D01*
X833183D01*
X864668Y1204724D02*
X875164D01*
X869916D01*
Y1236210D01*
X864668Y1230963D01*
X173614Y59518D02*
X167711Y65422D01*
X155904D01*
X150000Y59518D01*
Y35904D01*
X155904Y30000D01*
X167711D01*
X173614Y35904D01*
Y47711D01*
X161807D01*
X185422Y30000D02*
Y65422D01*
X209036Y30000D01*
Y65422D01*
X220843D02*
Y30000D01*
X238554D01*
X244458Y35904D01*
Y59518D01*
X238554Y65422D01*
X220843D01*
X150000Y159518D02*
X155904Y165422D01*
X167711D01*
X173614Y159518D01*
Y153614D01*
X167711Y147711D01*
X161807D01*
X167711D01*
X173614Y141807D01*
Y135904D01*
X167711Y130000D01*
X155904D01*
X150000Y135904D01*
X185422Y165422D02*
Y141807D01*
X197229Y130000D01*
X209036Y141807D01*
Y165422D01*
X220843Y159518D02*
X226747Y165422D01*
X238554D01*
X244458Y159518D01*
Y153614D01*
X238554Y147711D01*
X232650D01*
X238554D01*
X244458Y141807D01*
Y135904D01*
X238554Y130000D01*
X226747D01*
X220843Y135904D01*
X1073614Y165422D02*
X1050000D01*
Y147711D01*
X1061807Y153614D01*
X1067711D01*
X1073614Y147711D01*
Y135904D01*
X1067711Y130000D01*
X1055904D01*
X1050000Y135904D01*
X1085422Y165422D02*
Y141807D01*
X1097229Y130000D01*
X1109036Y141807D01*
Y165422D01*
X1053614Y59518D02*
X1047711Y65422D01*
X1035904D01*
X1030000Y59518D01*
Y35904D01*
X1035904Y30000D01*
X1047711D01*
X1053614Y35904D01*
Y47711D01*
X1041807D01*
X1065422Y30000D02*
Y65422D01*
X1089036Y30000D01*
Y65422D01*
X1100843D02*
Y30000D01*
X1118554D01*
X1124458Y35904D01*
Y59518D01*
X1118554Y65422D01*
X1100843D01*
X130002Y1181484D02*
Y1149998D01*
Y1165741D01*
X150992D01*
Y1181484D01*
Y1149998D01*
X161488D02*
X171983D01*
X166735D01*
Y1181484D01*
X161488Y1176237D01*
X1177165Y858258D02*
Y826772D01*
Y842515D01*
X1198156D01*
Y858258D01*
Y826772D01*
X1229642D02*
X1208651D01*
X1229642Y847762D01*
Y853010D01*
X1224394Y858258D01*
X1213899D01*
X1208651Y853010D01*
X475000Y911486D02*
Y880000D01*
X490743D01*
X495991Y885248D01*
Y890495D01*
X490743Y895743D01*
X475000D01*
X490743D01*
X495991Y900991D01*
Y906238D01*
X490743Y911486D01*
X475000D01*
X506486Y880000D02*
X516981D01*
X511734D01*
Y911486D01*
X506486Y906238D01*
D19*
X1150000Y0D02*
X1250000D01*
X1150000D02*
Y800000D01*
X1250000Y0D02*
Y800000D01*
X1150000Y799997D02*
X1250000Y800000D01*
X-2Y1199998D02*
X99998Y1200002D01*
Y2D02*
Y1200002D01*
X-2Y2D02*
Y1200002D01*
Y2D02*
X99998D01*
X1125984Y751968D02*
X1135981D01*
X1130983D01*
Y781959D01*
X1125984Y776960D01*
X43309Y1216534D02*
X53306D01*
X48307D01*
Y1246524D01*
X43309Y1241526D01*
D20*
X225000Y585643D02*
X172524D01*
X198762Y559404D02*
Y611881D01*
X489987Y74984D02*
X479990Y84981D01*
X459997D01*
X450000Y74984D01*
Y34997D01*
X459997Y25000D01*
X479990D01*
X489987Y34997D01*
X509981Y25000D02*
Y84981D01*
X539971D01*
X549968Y74984D01*
Y54990D01*
X539971Y44993D01*
X509981D01*
X529974D02*
X549968Y25000D01*
X609948D02*
X569961D01*
X609948Y64987D01*
Y74984D01*
X599952Y84981D01*
X579958D01*
X569961Y74984D01*
X659932Y25000D02*
Y84981D01*
X629942Y54990D01*
X669929D01*
X729909Y84981D02*
X689922D01*
Y54990D01*
X709916Y64987D01*
X719913D01*
X729909Y54990D01*
Y34997D01*
X719913Y25000D01*
X699919D01*
X689922Y34997D01*
X749903Y74984D02*
X759900Y84981D01*
X779893D01*
X789890Y74984D01*
Y34997D01*
X779893Y25000D01*
X759900D01*
X749903Y34997D01*
Y74984D01*
D21*
X1039370Y582664D02*
X1091847D01*
X1065608Y608903D02*
Y556426D01*
X600000Y614357D02*
X652476D01*
%TF.MD5,1457fe33f6c0849078b5ba70367fc945*%
M02*
