M48
;Layer_Color=9474304
;FILE_FORMAT=2:5
INCH,LZ
;TYPE=PLATED
T1F00S00C0.03500
T2F00S00C0.07300
%
T01
X012Y0005
Y0015
Y0025
Y0035
Y0045
Y0055
X0005Y0055
Y0045
Y0035
Y0025
X0005Y0015
Y0005
X0005Y0065
Y0075
Y0085
Y0095
Y0105
Y0115
X012Y0075
Y0065
T02
X01125Y005
X00125
M30
